<svg width="52" height="44" viewBox="0 0 52 44" fill="none" xmlns="http://www.w3.org/2000/svg">
<path d="M29.4171 22.7357C30.7315 23.3431 31.8523 24.2891 32.6593 25.4725C33.4662 26.6558 33.9289 28.0318 33.9976 29.4529C34.0068 29.5831 33.9893 29.7138 33.9462 29.8372C33.903 29.9607 33.8351 30.0745 33.7465 30.1719C33.6578 30.2693 33.5501 30.3485 33.4298 30.4046C33.3095 30.4608 33.1789 30.4928 33.0457 30.4989C32.9126 30.505 32.7795 30.485 32.6543 30.4401C32.5292 30.3952 32.4144 30.3262 32.3169 30.2373C32.2193 30.1484 32.1409 30.0413 32.0862 29.9223C32.0315 29.8033 32.0016 29.6748 31.9983 29.5444C31.9255 28.0349 31.2617 26.6109 30.1446 25.5678C29.0275 24.5248 27.5429 23.9429 25.999 23.9429C24.4551 23.9429 22.9705 24.5248 21.8534 25.5678C20.7362 26.6109 20.0724 28.0349 19.9996 29.5444C19.9817 29.7999 19.8622 30.0383 19.6668 30.2087C19.4714 30.379 19.2156 30.4677 18.9543 30.4557C18.6929 30.4438 18.4467 30.3321 18.2684 30.1447C18.0901 29.9573 17.9939 29.7089 18.0003 29.4529C18.0689 28.0319 18.5314 26.656 19.3381 25.4727C20.1448 24.2894 21.2653 23.3432 22.5795 22.7357C21.7374 22.0482 21.1321 21.1234 20.8459 20.0872C20.5597 19.051 20.6066 17.9537 20.9802 16.9445C21.3537 15.9353 22.0358 15.0633 22.9337 14.447C23.8316 13.8306 24.9016 13.5 25.9983 13.5C27.095 13.5 28.165 13.8306 29.0629 14.447C29.9608 15.0633 30.6429 15.9353 31.0164 16.9445C31.39 17.9537 31.4369 19.051 31.1507 20.0872C30.8645 21.1234 30.2592 22.0482 29.4171 22.7357ZM29.3356 18.7214C29.3356 17.8552 28.9841 17.0245 28.3583 16.4121C27.7326 15.7996 26.8839 15.4555 25.999 15.4555C25.114 15.4555 24.2653 15.7996 23.6396 16.4121C23.0138 17.0245 22.6623 17.8552 22.6623 18.7214C22.6623 19.5875 23.0138 20.4182 23.6396 21.0307C24.2653 21.6431 25.114 21.9872 25.999 21.9872C26.8839 21.9872 27.7326 21.6431 28.3583 21.0307C28.9841 20.4182 29.3356 19.5875 29.3356 18.7214Z" fill="#A2A7AF"/>
</svg>
