<svg width="18" height="20" viewBox="0 0 18 20" fill="none" xmlns="http://www.w3.org/2000/svg">
<path d="M15.9375 9.99998H6.67125M6.67125 9.99998C6.67125 10.4336 6.49824 10.8495 6.19162 11.1561C5.885 11.4627 5.46913 11.635 5.0355 11.635C4.60187 11.635 4.186 11.4627 3.87938 11.1561C3.57276 10.8495 3.4005 10.4336 3.4005 9.99998M6.67125 9.99998C6.67125 9.56635 6.49824 9.15048 6.19162 8.84386C5.885 8.53724 5.46913 8.36498 5.0355 8.36498C4.60187 8.36498 4.186 8.53724 3.87938 8.84386C3.57276 9.15048 3.4005 9.56635 3.4005 9.99998M3.4005 9.99998H2.0625M15.9375 14.9552H11.6265M11.6265 14.9552C11.6265 15.389 11.4538 15.8053 11.1471 16.112C10.8404 16.4187 10.4245 16.591 9.99075 16.591C9.55712 16.591 9.14125 16.418 8.83463 16.1113C8.52801 15.8047 8.35575 15.3889 8.35575 14.9552M11.6265 14.9552C11.6265 14.5215 11.4538 14.1059 11.1471 13.7992C10.8404 13.4925 10.4245 13.3202 9.99075 13.3202C9.55712 13.3202 9.14125 13.4925 8.83463 13.7991C8.52801 14.1057 8.35575 14.5216 8.35575 14.9552M8.35575 14.9552H2.0625M15.9375 5.04473H13.6088M13.6088 5.04473C13.6088 5.25944 13.5657 5.47205 13.4835 5.67042C13.4014 5.86878 13.2809 6.04902 13.1291 6.20085C12.9773 6.35267 12.7971 6.47311 12.5987 6.55527C12.4003 6.63744 12.1877 6.67973 11.973 6.67973C11.5394 6.67973 11.1235 6.50747 10.8169 6.20085C10.5103 5.89423 10.338 5.47836 10.338 5.04473M13.6088 5.04473C13.6088 4.83002 13.5657 4.61741 13.4835 4.41904C13.4014 4.22067 13.2809 4.04043 13.1291 3.88861C12.9773 3.73679 12.7971 3.61635 12.5987 3.53419C12.4003 3.45202 12.1877 3.40973 11.973 3.40973C11.5394 3.40973 11.1235 3.58199 10.8169 3.88861C10.5103 4.19523 10.338 4.6111 10.338 5.04473M10.338 5.04473H2.0625" stroke="#0512F5" stroke-width="1.5" stroke-miterlimit="10" stroke-linecap="round"/>
</svg>
