<svg width="44" height="44" viewBox="0 0 44 44" fill="none" xmlns="http://www.w3.org/2000/svg">
<path d="M17.591 19.991C17.169 20.4129 16.5967 20.65 16 20.65C15.4033 20.65 14.831 20.4129 14.409 19.991C13.987 19.569 13.75 18.9967 13.75 18.4C13.75 17.8033 13.987 17.231 14.409 16.809C14.831 16.3871 15.4033 16.15 16 16.15C16.5967 16.15 17.169 16.3871 17.591 16.809C18.0129 17.231 18.25 17.8033 18.25 18.4C18.25 18.9967 18.0129 19.569 17.591 19.991ZM16 22.15C16.4925 22.15 16.9801 22.053 17.4351 21.8646C17.89 21.6761 18.3034 21.3999 18.6516 21.0517C18.9999 20.7034 19.2761 20.29 19.4645 19.8351C19.653 19.3801 19.75 18.8925 19.75 18.4C19.75 17.9075 19.653 17.4199 19.4645 16.9649C19.2761 16.51 18.9999 16.0966 18.6516 15.7484C18.3034 15.4001 17.89 15.1239 17.4351 14.9355C16.9801 14.747 16.4925 14.65 16 14.65C15.0054 14.65 14.0516 15.0451 13.3483 15.7484C12.6451 16.4516 12.25 17.4054 12.25 18.4C12.25 19.3946 12.6451 20.3484 13.3483 21.0517C14.0516 21.7549 15.0054 22.15 16 22.15Z" fill="#A2A7AF" stroke="#A2A7AF" stroke-width="0.3"/>
<path d="M14.7307 21.631L14.7307 21.631L14.3253 22.0353C13.5728 22.7879 13.1501 23.8086 13.15 24.8728C13.15 24.8728 13.15 24.8728 13.15 24.8728V27.1C13.15 27.2989 13.071 27.4897 12.9303 27.6303M14.7307 21.631L12.9303 27.6303M14.7307 21.631C14.8006 21.5613 14.856 21.4786 14.8938 21.3875C14.9316 21.2963 14.9511 21.1987 14.9511 21.1C14.9511 21.0014 14.9316 20.9037 14.8938 20.8126C14.856 20.7215 14.8006 20.6388 14.7309 20.5691C14.6612 20.4994 14.5785 20.444 14.4874 20.4062C14.3963 20.3684 14.2986 20.3489 14.2 20.3489C14.1013 20.3489 14.0037 20.3684 13.9125 20.4062C13.8214 20.444 13.7387 20.4994 13.669 20.5693L13.669 20.5693L13.2647 20.9747C13.2647 20.9748 13.2647 20.9748 13.2647 20.9748C12.231 22.0087 11.6502 23.4108 11.65 24.8728V24.8728M14.7307 21.631L11.65 24.8728M12.9303 27.6303C12.7897 27.771 12.5989 27.85 12.4 27.85C12.2011 27.85 12.0103 27.771 11.8697 27.6303C11.729 27.4897 11.65 27.2989 11.65 27.1V24.8728M12.9303 27.6303L11.65 24.8728M28.6447 20.51L28.5062 20.4526C28.544 20.3614 28.5994 20.2787 28.6693 20.209M28.6447 20.51L28.97 20.1847M28.6447 20.51L28.5062 20.4526C28.4684 20.5437 28.4489 20.6414 28.4489 20.74C28.4489 20.8387 28.4684 20.9363 28.5062 21.0275L28.6447 20.97L28.5062 21.0275C28.544 21.1186 28.5994 21.2013 28.6693 21.271L28.6693 21.271M28.6447 20.51L28.6693 21.271M28.6693 20.209L28.7752 20.3152L28.669 20.2093C28.6691 20.2092 28.6692 20.2091 28.6693 20.209ZM28.6693 20.209C28.7389 20.1393 28.8215 20.084 28.9125 20.0462L28.97 20.1847M28.97 20.1847L28.9125 20.0462C29.0037 20.0084 29.1013 19.9889 29.2 19.9889C29.2986 19.9889 29.3963 20.0084 29.4874 20.0462L29.4299 20.1847M28.97 20.1847H29.4299M29.4299 20.1847L29.4874 20.0462C29.5786 20.084 29.6613 20.1394 29.731 20.2093M29.4299 20.1847L29.731 20.2093M28.6693 21.271L29.0747 21.6753C29.0747 21.6753 29.0748 21.6753 29.0748 21.6754C29.8272 22.428 30.2499 23.4486 30.25 24.5128V27.1C30.25 27.2989 30.329 27.4897 30.4697 27.6303C30.6103 27.771 30.8011 27.85 31 27.85C31.1989 27.85 31.3897 27.771 31.5303 27.6303C31.671 27.4897 31.75 27.2989 31.75 27.1V24.5128C31.7498 23.0508 31.169 21.6486 30.1353 20.6147L29.731 20.2093L29.731 20.2093M28.6693 21.271L29.731 20.2093" fill="#A2A7AF" stroke="#A2A7AF" stroke-width="0.3"/>
<path d="M26.8 20.65C26.2032 20.65 25.6309 20.4129 25.209 19.991C24.787 19.569 24.55 18.9967 24.55 18.4C24.55 17.8033 24.787 17.231 25.209 16.809C25.6309 16.3871 26.2032 16.15 26.8 16.15C27.3967 16.15 27.969 16.3871 28.391 16.809C28.8129 17.231 29.05 17.8033 29.05 18.4C29.05 18.9967 28.8129 19.569 28.391 19.991C27.969 20.4129 27.3967 20.65 26.8 20.65ZM25.3649 21.8646C25.8199 22.053 26.3075 22.15 26.8 22.15C27.7945 22.15 28.7484 21.7549 29.4516 21.0517C30.1549 20.3484 30.55 19.3946 30.55 18.4C30.55 17.4054 30.1549 16.4516 29.4516 15.7484C28.7484 15.0451 27.7945 14.65 26.8 14.65C26.3075 14.65 25.8199 14.747 25.3649 14.9355C24.9099 15.1239 24.4966 15.4001 24.1483 15.7484C23.8001 16.0966 23.5239 16.51 23.3354 16.9649C23.147 17.4199 23.05 17.9075 23.05 18.4C23.05 18.8925 23.147 19.3801 23.3354 19.8351C23.5239 20.29 23.8001 20.7034 24.1483 21.0517C24.4966 21.3999 24.9099 21.6761 25.3649 21.8646ZM19.3847 26.8847C19.9192 26.3503 20.6441 26.05 21.4 26.05C21.7742 26.05 22.1449 26.1237 22.4906 26.2669C22.8364 26.4102 23.1506 26.6201 23.4152 26.8847C23.6799 27.1494 23.8898 27.4636 24.033 27.8094C24.1763 28.1551 24.25 28.5257 24.25 28.9V30.46C24.25 30.6589 24.329 30.8497 24.4697 30.9903C24.6103 31.131 24.8011 31.21 25 31.21C25.1989 31.21 25.3897 31.131 25.5303 30.9903C25.671 30.8497 25.75 30.6589 25.75 30.46V28.9C25.75 27.7463 25.2917 26.6399 24.4759 25.8241C23.6601 25.0083 22.5537 24.55 21.4 24.55C20.2463 24.55 19.1399 25.0083 18.3241 25.8241C17.5083 26.6399 17.05 27.7463 17.05 28.9V30.46C17.05 30.6589 17.129 30.8497 17.2697 30.9903C17.4103 31.131 17.6011 31.21 17.8 31.21C17.9989 31.21 18.1897 31.131 18.3303 30.9903C18.471 30.8497 18.55 30.6589 18.55 30.46V28.9C18.55 28.1441 18.8502 27.4192 19.3847 26.8847Z" fill="#A2A7AF" stroke="#A2A7AF" stroke-width="0.3"/>
<path d="M22.991 23.291C22.569 23.713 21.9967 23.95 21.4 23.95C20.8033 23.95 20.231 23.713 19.809 23.291C19.387 22.869 19.15 22.2967 19.15 21.7C19.15 21.1033 19.387 20.531 19.809 20.109C20.231 19.6871 20.8033 19.45 21.4 19.45C21.9967 19.45 22.569 19.6871 22.991 20.109C23.4129 20.531 23.65 21.1033 23.65 21.7C23.65 22.2967 23.4129 22.869 22.991 23.291ZM21.4 25.45C22.3945 25.45 23.3484 25.0549 24.0516 24.3517C24.7549 23.6484 25.15 22.6946 25.15 21.7C25.15 20.7054 24.7549 19.7516 24.0516 19.0484C23.3484 18.3451 22.3945 17.95 21.4 17.95C20.4054 17.95 19.4516 18.3451 18.7483 19.0484C18.0451 19.7516 17.65 20.7054 17.65 21.7C17.65 22.6946 18.0451 23.6484 18.7483 24.3517C19.4516 25.0549 20.4054 25.45 21.4 25.45Z" fill="#A2A7AF" stroke="#A2A7AF" stroke-width="0.3"/>
</svg>
