<svg width="36" height="44" viewBox="0 0 36 44" fill="none" xmlns="http://www.w3.org/2000/svg">
<g clip-path="url(#clip0_869_509)">
<path d="M12.5 17V30.3333H27.5V32H12.5C12.058 32 11.6341 31.8244 11.3215 31.5119C11.0089 31.1993 10.8333 30.7754 10.8333 30.3333V17H12.5ZM23.3333 19.5H27.9167L23.3333 14.9167V19.5ZM15.8333 13.6667H24.1667L29.1667 18.6667V27C29.1667 27.442 28.9911 27.866 28.6785 28.1785C28.366 28.4911 27.942 28.6667 27.5 28.6667H15.8333C15.3913 28.6667 14.9674 28.4911 14.6548 28.1785C14.3423 27.866 14.1667 27.442 14.1667 27V15.3333C14.1667 14.8913 14.3423 14.4674 14.6548 14.1548C14.9674 13.8423 15.3913 13.6667 15.8333 13.6667ZM15.8333 15.3333V27H27.5V21.1667H21.6667V15.3333H15.8333Z" fill="#A2A7AF"/>
<path d="M12.5 17V30.3333H27.5V32H12.5C12.058 32 11.6341 31.8244 11.3215 31.5119C11.0089 31.1993 10.8333 30.7754 10.8333 30.3333V17H12.5ZM23.3333 19.5H27.9167L23.3333 14.9167V19.5ZM15.8333 13.6667H24.1667L29.1667 18.6667V27C29.1667 27.442 28.9911 27.866 28.6785 28.1785C28.366 28.4911 27.942 28.6667 27.5 28.6667H15.8333C15.3913 28.6667 14.9674 28.4911 14.6548 28.1785C14.3423 27.866 14.1667 27.442 14.1667 27V15.3333C14.1667 14.8913 14.3423 14.4674 14.6548 14.1548C14.9674 13.8423 15.3913 13.6667 15.8333 13.6667ZM15.8333 15.3333V27H27.5V21.1667H21.6667V15.3333H15.8333Z" stroke="#A2A7AF"/>
</g>
<defs>
<clipPath id="clip0_869_509">
<rect width="20" height="20" fill="white" transform="translate(10 12)"/>
</clipPath>
</defs>
</svg>
