<svg width="44" height="44" viewBox="0 0 44 44" fill="none" xmlns="http://www.w3.org/2000/svg">
<path d="M12.8333 27.625V20.8984C12.8333 20.6484 12.8792 20.4103 12.9708 20.1841C13.0625 19.9578 13.1924 19.7584 13.3604 19.5859L17.0271 15.8359C17.2104 15.6484 17.4167 15.5078 17.6458 15.4141C17.875 15.3203 18.1042 15.2734 18.3333 15.2734C18.5625 15.2734 18.7917 15.3203 19.0208 15.4141C19.25 15.5078 19.4563 15.6484 19.6396 15.8359L23.3063 19.5859C23.4743 19.7578 23.6042 19.9572 23.6958 20.1841C23.7875 20.4109 23.8333 20.6491 23.8333 20.8984V27.625C23.8333 28.1406 23.654 28.5822 23.2953 28.9497C22.9365 29.3172 22.5048 29.5006 22 29.5H14.6667C14.1625 29.5 13.7311 29.3166 13.3723 28.9497C13.0136 28.5828 12.834 28.1412 12.8333 27.625ZM14.6667 27.625H17.4167V25.75C17.4167 25.4844 17.5047 25.2619 17.6807 25.0825C17.8567 24.9031 18.0742 24.8131 18.3333 24.8125C18.5925 24.8119 18.8103 24.9019 18.9869 25.0825C19.1635 25.2631 19.2512 25.4856 19.25 25.75V27.625H22V20.8984L18.3333 17.1484L14.6667 20.8984V27.625ZM25.6667 28.5625V19.3516L22.4813 16.0938C22.191 15.7969 22.1222 15.4569 22.275 15.0738C22.4278 14.6906 22.7104 14.4994 23.1229 14.5C23.2451 14.5 23.3674 14.5275 23.4896 14.5825C23.6118 14.6375 23.7111 14.7038 23.7875 14.7813L26.9729 18.0391C27.141 18.2109 27.2708 18.4103 27.3625 18.6372C27.4542 18.8641 27.5 19.1022 27.5 19.3516V28.5625C27.5 28.8281 27.412 29.0509 27.236 29.2309C27.06 29.4109 26.8425 29.5006 26.5833 29.5C26.3242 29.4994 26.1067 29.4094 25.9307 29.23C25.7547 29.0506 25.6667 28.8281 25.6667 28.5625ZM29.3333 28.5625V17.8047L27.6604 16.0938C27.3701 15.7969 27.3014 15.4569 27.4542 15.0738C27.607 14.6906 27.8896 14.4994 28.3021 14.5C28.4243 14.5 28.5465 14.5275 28.6688 14.5825C28.791 14.6375 28.8903 14.7038 28.9667 14.7813L30.6396 16.4922C30.8076 16.6641 30.9375 16.8634 31.0292 17.0903C31.1208 17.3172 31.1667 17.5553 31.1667 17.8047V28.5625C31.1667 28.8281 31.0787 29.0509 30.9027 29.2309C30.7267 29.4109 30.5091 29.5006 30.25 29.5C29.9909 29.4994 29.7733 29.4094 29.5973 29.23C29.4213 29.0506 29.3333 28.8281 29.3333 28.5625ZM18.3333 22.9375C18.0736 22.9375 17.8561 22.8475 17.6807 22.6675C17.5053 22.4875 17.4173 22.265 17.4167 22C17.4161 21.735 17.5041 21.5125 17.6807 21.3325C17.8573 21.1525 18.0748 21.0625 18.3333 21.0625C18.5918 21.0625 18.8097 21.1525 18.9869 21.3325C19.1641 21.5125 19.2518 21.735 19.25 22C19.2482 22.265 19.1602 22.4878 18.986 22.6684C18.8118 22.8491 18.5943 22.9387 18.3333 22.9375Z" fill="#A2A7AF"/>
</svg>
